<svg xmlns="http://www.w3.org/2000/svg" width="33" height="33" viewBox="0 0 33 33" fill="none">
  <path d="M23.0114 2.92383H9.67807C5.99617 2.92383 3.0114 5.9086 3.0114 9.5905V22.9238C3.0114 26.6057 5.99617 29.5905 9.67807 29.5905H23.0114C26.6933 29.5905 29.6781 26.6057 29.6781 22.9238V9.5905C29.6781 5.9086 26.6933 2.92383 23.0114 2.92383Z" stroke="#F7EEEB" stroke-width="2" stroke-linecap="round" stroke-linejoin="round"/>
  <path d="M21.6781 15.4182C21.8426 16.5279 21.6531 17.6612 21.1364 18.6569C20.6197 19.6526 19.8023 20.4601 18.8002 20.9644C17.7982 21.4688 16.6627 21.6443 15.5551 21.4661C14.4476 21.2879 13.4244 20.765 12.6312 19.9718C11.838 19.1785 11.315 18.1554 11.1368 17.0478C10.9586 15.9403 11.1341 14.8047 11.6385 13.8027C12.1428 12.8007 12.9503 11.9832 13.946 11.4665C14.9418 10.9499 16.0751 10.7603 17.1847 10.9249C18.3166 11.0927 19.3645 11.6202 20.1737 12.4293C20.9828 13.2384 21.5102 14.2863 21.6781 15.4182Z" stroke="#F7EEEB" stroke-width="2" stroke-linecap="round" stroke-linejoin="round"/>
  <path d="M23.6781 8.92383H23.6914" stroke="#F7EEEB" stroke-width="2" stroke-linecap="round" stroke-linejoin="round"/>
</svg>