<svg xmlns="http://www.w3.org/2000/svg" width="33" height="33" viewBox="0 0 33 33" fill="none">
  <path d="M22.2455 10.9238C24.3672 10.9238 26.402 11.7667 27.9023 13.267C29.4026 14.7673 30.2455 16.8021 30.2455 18.9238V28.2572H24.9121V18.9238C24.9121 18.2166 24.6312 17.5383 24.1311 17.0382C23.631 16.5381 22.9527 16.2572 22.2455 16.2572C21.5382 16.2572 20.8599 16.5381 20.3598 17.0382C19.8597 17.5383 19.5788 18.2166 19.5788 18.9238V28.2572H14.2455V18.9238C14.2455 16.8021 15.0883 14.7673 16.5886 13.267C18.0889 11.7667 20.1237 10.9238 22.2455 10.9238Z" stroke="#F7EEEB" stroke-width="2" stroke-linecap="round" stroke-linejoin="round"/>
  <path d="M8.9121 12.2578H3.57877V28.2578H8.9121V12.2578Z" stroke="#F7EEEB" stroke-width="2" stroke-linecap="round" stroke-linejoin="round"/>
  <path d="M6.24543 8.25716C7.71819 8.25716 8.9121 7.06325 8.9121 5.59049C8.9121 4.11774 7.71819 2.92383 6.24543 2.92383C4.77267 2.92383 3.57877 4.11774 3.57877 5.59049C3.57877 7.06325 4.77267 8.25716 6.24543 8.25716Z" stroke="#F7EEEB" stroke-width="2" stroke-linecap="round" stroke-linejoin="round"/>
</svg>