
<svg xmlns="http://www.w3.org/2000/svg" width="33" height="33" viewBox="0 0 33 33" fill="none">
  <g clip-path="url(#clip0_265_6853)">
    <path d="M30.5338 8.81846C30.3754 8.18568 30.0529 7.60589 29.5987 7.13767C29.1445 6.66945 28.5748 6.32938 27.9471 6.1518C25.6538 5.5918 16.4805 5.5918 16.4805 5.5918C16.4805 5.5918 7.30714 5.5918 5.01381 6.20513C4.38614 6.38271 3.81645 6.72278 3.36227 7.191C2.9081 7.65923 2.58553 8.23901 2.42714 8.8718C2.00743 11.1992 1.80213 13.5602 1.81381 15.9251C1.79885 18.3079 2.00417 20.6869 2.42714 23.0318C2.60176 23.6449 2.93155 24.2027 3.38467 24.6511C3.83779 25.0995 4.39891 25.4235 5.01381 25.5918C7.30714 26.2051 16.4805 26.2051 16.4805 26.2051C16.4805 26.2051 25.6538 26.2051 27.9471 25.5918C28.5748 25.4142 29.1445 25.0741 29.5987 24.6059C30.0529 24.1377 30.3754 23.5579 30.5338 22.9251C30.9503 20.6152 31.1556 18.2722 31.1471 15.9251C31.1621 13.5424 30.9568 11.1634 30.5338 8.81846Z" stroke="#F7EEEB" stroke-width="2" stroke-linecap="round" stroke-linejoin="round"/>
    <path d="M13.4805 20.2845L21.1471 15.9245L13.4805 11.5645V20.2845Z" stroke="#F7EEEB" stroke-width="2" stroke-linecap="round" stroke-linejoin="round"/>
  </g>
  <defs>
    <clipPath id="clip0_265_6853">
      <rect width="32" height="32" fill="white" transform="translate(0.480469 0.257812)"/>
    </clipPath>
  </defs>
</svg>