<svg xmlns="http://www.w3.org/2000/svg" width="100" height="32" viewBox="0 0 100 32" fill="none">
  <path d="M7.34842 2.39952V13.5592H4.99058V2.39952H0.769287V0.228525H11.5697V2.39952H7.34842Z" fill="url(#paint0_linear_1135_2811)"/>
  <path d="M22.1693 7.94128H15.8183V13.5592H13.4795V0.228525H15.8183V5.77028H22.1693V0.228525H24.5081V13.5592H22.1693V7.94128Z" fill="url(#paint1_linear_1135_2811)"/>
  <path d="M37.2246 0.228525V2.32335H29.6947V5.78933H36.3689V7.88415H29.6947V11.4644H37.3197V13.5592H27.3559V0.228525H37.2246Z" fill="url(#paint2_linear_1135_2811)"/>
  <path d="M53.344 7.94128H46.993V13.5592H44.6542V0.228525H46.993V5.77028H53.344V0.228525H55.6828V13.5592H53.344V7.94128Z" fill="url(#paint3_linear_1135_2811)"/>
  <path d="M71.86 6.87483C71.86 7.81432 71.6889 8.70304 71.3466 9.54097C71.0043 10.3789 70.5226 11.1153 69.9015 11.7501C69.2803 12.3721 68.5451 12.8673 67.6957 13.2355C66.8464 13.6037 65.9083 13.7877 64.8815 13.7877C63.8547 13.7877 62.9167 13.61 62.0674 13.2545C61.218 12.8863 60.4891 12.3912 59.8806 11.7691C59.2722 11.147 58.7968 10.417 58.4545 9.57905C58.1123 8.74112 57.9411 7.85241 57.9411 6.91291C57.9411 5.97342 58.1123 5.08471 58.4545 4.24678C58.7968 3.40885 59.2785 2.67883 59.8997 2.05673C60.5208 1.42194 61.2561 0.920452 62.1054 0.552271C62.9547 0.18409 63.8928 0 64.9196 0C65.9464 0 66.8844 0.18409 67.7338 0.552271C68.5831 0.907756 69.312 1.39655 69.9205 2.01865C70.529 2.64075 71.0043 3.37076 71.3466 4.20869C71.6889 5.04662 71.86 5.93533 71.86 6.87483ZM69.4071 6.91291C69.4071 6.26542 69.293 5.65602 69.0648 5.08471C68.8493 4.50069 68.5387 3.99286 68.1331 3.5612C67.7401 3.12954 67.2647 2.78675 66.707 2.53283C66.1492 2.27891 65.5407 2.15195 64.8815 2.15195C64.2224 2.15195 63.6139 2.27891 63.0561 2.53283C62.511 2.77405 62.042 3.11049 61.649 3.54215C61.2561 3.96112 60.9455 4.46261 60.7173 5.04662C60.5018 5.61793 60.394 6.22734 60.394 6.87483C60.394 7.52232 60.5018 8.13807 60.7173 8.72208C60.9455 9.2934 61.2561 9.79488 61.649 10.2265C62.0547 10.6582 62.5364 11.001 63.0942 11.2549C63.6519 11.5088 64.2604 11.6358 64.9196 11.6358C65.5788 11.6358 66.1809 11.5152 66.726 11.274C67.2838 11.02 67.7591 10.6836 68.1521 10.2646C68.5451 9.83297 68.8493 9.33148 69.0648 8.76017C69.293 8.17616 69.4071 7.5604 69.4071 6.91291Z" fill="url(#paint4_linear_1135_2811)"/>
  <path d="M85.2961 0.228525V7.78893C85.2961 8.77921 85.1566 9.64888 84.8777 10.3979C84.6115 11.147 84.2312 11.7754 83.7368 12.2833C83.2425 12.7784 82.6403 13.1529 81.9304 13.4069C81.2332 13.6481 80.4473 13.7687 79.5726 13.7687C78.7106 13.7687 77.931 13.6481 77.2338 13.4069C76.5366 13.1529 75.9408 12.7784 75.4464 12.2833C74.952 11.7881 74.5717 11.1787 74.3055 10.4551C74.0393 9.71871 73.9062 8.86808 73.9062 7.90319V0.228525H76.245V7.80798C76.245 9.05217 76.5429 9.99802 77.1387 10.6455C77.7345 11.293 78.5585 11.6167 79.6106 11.6167C80.6501 11.6167 81.4677 11.3057 82.0635 10.6836C82.6593 10.0615 82.9572 9.1347 82.9572 7.90319V0.228525H85.2961Z" fill="url(#paint5_linear_1135_2811)"/>
  <path d="M99.2308 13.5592H96.4737L93.2031 8.91252H90.2748V13.5592H87.936V0.228525H93.8686C94.6292 0.228525 95.3138 0.330093 95.9222 0.533228C96.5434 0.723666 97.0631 1.00298 97.4815 1.37116C97.9125 1.72664 98.2421 2.171 98.4702 2.70422C98.6984 3.22476 98.8125 3.80877 98.8125 4.45626C98.8125 5.01488 98.7301 5.51637 98.5653 5.96072C98.4132 6.39238 98.1977 6.77961 97.9188 7.1224C97.6399 7.45249 97.304 7.73815 96.911 7.97937C96.5307 8.2079 96.106 8.38564 95.637 8.5126L99.2308 13.5592ZM96.4356 4.58957C96.4356 3.8532 96.1948 3.30093 95.7131 2.93275C95.2314 2.55187 94.5532 2.36144 93.6785 2.36144H90.2748V6.83674H93.6975C94.5342 6.83674 95.1997 6.6336 95.6941 6.22734C96.1884 5.82107 96.4356 5.27514 96.4356 4.58957Z" fill="url(#paint6_linear_1135_2811)"/>
  <path d="M14.8403 22.2496L10.638 28.534H10.5619L6.39768 22.2876V31.8096H4.09688V18.4789H6.58783L10.638 24.7824L14.6882 18.4789H17.1791V31.8096H14.8403V22.2496Z" fill="url(#paint7_linear_1135_2811)"/>
  <path d="M27.4883 18.3837L33.3448 31.8096H30.8729L29.5229 28.5912H23.2289L21.8599 31.8096H19.464L25.3206 18.3837H27.4883ZM28.6672 26.5154L26.3664 21.1831L24.0846 26.5154H28.6672Z" fill="url(#paint8_linear_1135_2811)"/>
  <path d="M46.9222 31.8096H44.165L40.8945 27.1629H37.9662V31.8096H35.6274V18.4789H41.56C42.3206 18.4789 43.0051 18.5804 43.6136 18.7836C44.2347 18.974 44.7545 19.2533 45.1728 19.6215C45.6038 19.977 45.9334 20.4213 46.1616 20.9546C46.3898 21.4751 46.5038 22.0591 46.5038 22.7066C46.5038 23.2652 46.4215 23.7667 46.2567 24.2111C46.1045 24.6427 45.889 25.03 45.6101 25.3727C45.3313 25.7028 44.9953 25.9885 44.6024 26.2297C44.2221 26.4582 43.7974 26.636 43.3284 26.7629L46.9222 31.8096ZM44.127 22.8399C44.127 22.1036 43.8861 21.5513 43.4044 21.1831C42.9227 20.8022 42.2445 20.6118 41.3698 20.6118H37.9662V25.0871H41.3889C42.2255 25.0871 42.891 24.884 43.3854 24.4777C43.8798 24.0714 44.127 23.5255 44.127 22.8399Z" fill="url(#paint9_linear_1135_2811)"/>
  <path d="M55.3772 24.2111L61.1578 31.8096H58.3245L53.78 25.8108L51.7074 27.9437V31.8096H49.3686V18.4789H51.7074V25.1823L58.0393 18.4789H60.9106L55.3772 24.2111Z" fill="url(#paint10_linear_1135_2811)"/>
  <path d="M73.0156 18.4789V20.5737H65.4857V24.0397H72.1599V26.1345H65.4857V29.7147H73.1107V31.8096H63.1469V18.4789H73.0156Z" fill="url(#paint11_linear_1135_2811)"/>
  <path d="M87.1802 31.8096H84.423L81.1525 27.1629H78.2242V31.8096H75.8853V18.4789H81.818C82.5786 18.4789 83.2631 18.5804 83.8716 18.7836C84.4927 18.974 85.0125 19.2533 85.4308 19.6215C85.8618 19.977 86.1914 20.4213 86.4196 20.9546C86.6478 21.4751 86.7618 22.0591 86.7618 22.7066C86.7618 23.2652 86.6794 23.7667 86.5146 24.2111C86.3625 24.6427 86.147 25.03 85.8681 25.3727C85.5893 25.7028 85.2533 25.9885 84.8604 26.2297C84.4801 26.4582 84.0554 26.636 83.5864 26.7629L87.1802 31.8096ZM84.385 22.8399C84.385 22.1036 84.1441 21.5513 83.6624 21.1831C83.1807 20.8022 82.5025 20.6118 81.6278 20.6118H78.2242V25.0871H81.6468C82.4835 25.0871 83.149 24.884 83.6434 24.4777C84.1378 24.0714 84.385 23.5255 84.385 22.8399Z" fill="url(#paint12_linear_1135_2811)"/>
  <path d="M91.6041 21.9639C91.6041 22.2305 91.6485 22.459 91.7372 22.6495C91.8259 22.8399 91.9844 23.0177 92.2126 23.1827C92.4534 23.3477 92.7767 23.5001 93.1823 23.6398C93.6006 23.7794 94.1267 23.9254 94.7606 24.0778C95.4578 24.2555 96.0726 24.4523 96.605 24.6681C97.1501 24.884 97.6001 25.1506 97.955 25.468C98.31 25.7727 98.5762 26.1345 98.7537 26.5535C98.9438 26.9597 99.0389 27.4422 99.0389 28.0008C99.0389 28.6356 98.9185 29.2006 98.6776 29.6957C98.4494 30.1908 98.1262 30.6098 97.7079 30.9526C97.2895 31.2954 96.7888 31.5556 96.2057 31.7334C95.6226 31.9111 94.9824 32 94.2852 32C93.2584 32 92.2759 31.8286 91.3379 31.4858C90.3998 31.1303 89.5315 30.5908 88.7328 29.8671L90.1399 28.1912C90.7864 28.7499 91.4393 29.1815 92.0985 29.4862C92.7577 29.7782 93.5056 29.9242 94.3422 29.9242C95.0648 29.9242 95.6352 29.7719 96.0536 29.4672C96.4846 29.1625 96.7001 28.7499 96.7001 28.2293C96.7001 27.9881 96.6557 27.7723 96.567 27.5818C96.4909 27.3914 96.3388 27.22 96.1106 27.0676C95.8951 26.9026 95.5909 26.7502 95.1979 26.6106C94.8176 26.4709 94.3169 26.3249 93.6957 26.1726C92.9858 26.0075 92.352 25.8234 91.7942 25.6203C91.2491 25.4172 90.7864 25.1633 90.4062 24.8586C90.0385 24.5539 89.7533 24.1857 89.5505 23.754C89.3603 23.3224 89.2653 22.7955 89.2653 22.1734C89.2653 21.5894 89.3793 21.0625 89.6075 20.5927C89.8357 20.1103 90.1463 19.6977 90.5393 19.3549C90.9449 19.0121 91.4266 18.7518 91.9844 18.5741C92.5422 18.3837 93.1506 18.2884 93.8098 18.2884C94.7859 18.2884 95.6606 18.4344 96.4339 18.7264C97.2198 19.0058 97.955 19.4184 98.6396 19.9643L97.3846 21.7354C96.7761 21.291 96.174 20.9546 95.5782 20.726C94.9824 20.4848 94.3802 20.3642 93.7718 20.3642C93.0872 20.3642 92.5548 20.5229 92.1745 20.8403C91.7942 21.145 91.6041 21.5195 91.6041 21.9639Z" fill="url(#paint13_linear_1135_2811)"/>
  <defs>
    <linearGradient id="paint0_linear_1135_2811" x1="0.769289" y1="32" x2="98.5665" y2="-1.9155" gradientUnits="userSpaceOnUse">
      <stop stop-color="#FFD085"/>
      <stop offset="1" stop-color="#E9D99D"/>
    </linearGradient>
    <linearGradient id="paint1_linear_1135_2811" x1="0.769289" y1="32" x2="98.5665" y2="-1.9155" gradientUnits="userSpaceOnUse">
      <stop stop-color="#FFD085"/>
      <stop offset="1" stop-color="#E9D99D"/>
    </linearGradient>
    <linearGradient id="paint2_linear_1135_2811" x1="0.769289" y1="32" x2="98.5665" y2="-1.9155" gradientUnits="userSpaceOnUse">
      <stop stop-color="#FFD085"/>
      <stop offset="1" stop-color="#E9D99D"/>
    </linearGradient>
    <linearGradient id="paint3_linear_1135_2811" x1="0.769289" y1="32" x2="98.5665" y2="-1.9155" gradientUnits="userSpaceOnUse">
      <stop stop-color="#FFD085"/>
      <stop offset="1" stop-color="#E9D99D"/>
    </linearGradient>
    <linearGradient id="paint4_linear_1135_2811" x1="0.769289" y1="32" x2="98.5665" y2="-1.9155" gradientUnits="userSpaceOnUse">
      <stop stop-color="#FFD085"/>
      <stop offset="1" stop-color="#E9D99D"/>
    </linearGradient>
    <linearGradient id="paint5_linear_1135_2811" x1="0.769289" y1="32" x2="98.5665" y2="-1.9155" gradientUnits="userSpaceOnUse">
      <stop stop-color="#FFD085"/>
      <stop offset="1" stop-color="#E9D99D"/>
    </linearGradient>
    <linearGradient id="paint6_linear_1135_2811" x1="0.769289" y1="32" x2="98.5665" y2="-1.9155" gradientUnits="userSpaceOnUse">
      <stop stop-color="#FFD085"/>
      <stop offset="1" stop-color="#E9D99D"/>
    </linearGradient>
    <linearGradient id="paint7_linear_1135_2811" x1="0.769289" y1="32" x2="98.5665" y2="-1.9155" gradientUnits="userSpaceOnUse">
      <stop stop-color="#FFD085"/>
      <stop offset="1" stop-color="#E9D99D"/>
    </linearGradient>
    <linearGradient id="paint8_linear_1135_2811" x1="0.769289" y1="32" x2="98.5665" y2="-1.9155" gradientUnits="userSpaceOnUse">
      <stop stop-color="#FFD085"/>
      <stop offset="1" stop-color="#E9D99D"/>
    </linearGradient>
    <linearGradient id="paint9_linear_1135_2811" x1="0.769289" y1="32" x2="98.5665" y2="-1.9155" gradientUnits="userSpaceOnUse">
      <stop stop-color="#FFD085"/>
      <stop offset="1" stop-color="#E9D99D"/>
    </linearGradient>
    <linearGradient id="paint10_linear_1135_2811" x1="0.769289" y1="32" x2="98.5665" y2="-1.9155" gradientUnits="userSpaceOnUse">
      <stop stop-color="#FFD085"/>
      <stop offset="1" stop-color="#E9D99D"/>
    </linearGradient>
    <linearGradient id="paint11_linear_1135_2811" x1="0.769289" y1="32" x2="98.5665" y2="-1.9155" gradientUnits="userSpaceOnUse">
      <stop stop-color="#FFD085"/>
      <stop offset="1" stop-color="#E9D99D"/>
    </linearGradient>
    <linearGradient id="paint12_linear_1135_2811" x1="0.769289" y1="32" x2="98.5665" y2="-1.9155" gradientUnits="userSpaceOnUse">
      <stop stop-color="#FFD085"/>
      <stop offset="1" stop-color="#E9D99D"/>
    </linearGradient>
    <linearGradient id="paint13_linear_1135_2811" x1="0.769289" y1="32" x2="98.5665" y2="-1.9155" gradientUnits="userSpaceOnUse">
      <stop stop-color="#FFD085"/>
      <stop offset="1" stop-color="#E9D99D"/>
    </linearGradient>
  </defs>
</svg>